<?xml version="1.0" encoding="iso-8859-1"?>
<!-- Generator: Adobe Illustrator 19.0.0, SVG Export Plug-In . SVG Version: 6.00 Build 0)  -->
<svg version="1.1" id="Capa_1" xmlns="http://www.w3.org/2000/svg" xmlns:xlink="http://www.w3.org/1999/xlink" x="0px" y="0px"
	 viewBox="0 0 490 490" style="enable-background:new 0 0 490 490;" xml:space="preserve">
<g id="line_11_">
	<path style="fill: white" d="M245,0c-73.607,0-133.494,63.715-133.494,142.023v79.732H69.029V490h351.942V221.756h-42.477v-79.732
		C378.494,63.715,318.607,0,245,0z M142.131,142.023c0-61.418,46.137-111.398,102.869-111.398
		c56.717,0,102.869,49.98,102.869,111.398v79.732H142.131V142.023z M390.346,459.375H99.654V252.381h290.692L390.346,459.375z"/>
	<path style="fill: white" d="M222.843,366.642v58.034h44.314v-58.034c13.199-7.702,22.157-21.882,22.157-38.297c0-24.546-19.845-44.452-44.314-44.452
		c-24.469,0-44.314,19.906-44.314,44.452C200.686,344.761,209.643,358.94,222.843,366.642z"/>
</g>
<g>
</g>
<g>
</g>
<g>
</g>
<g>
</g>
<g>
</g>
<g>
</g>
<g>
</g>
<g>
</g>
<g>
</g>
<g>
</g>
<g>
</g>
<g>
</g>
<g>
</g>
<g>
</g>
<g>
</g>
</svg>
