<?xml version="1.0" encoding="iso-8859-1"?>
<!-- Generator: Adobe Illustrator 19.0.0, SVG Export Plug-In . SVG Version: 6.00 Build 0)  -->
<svg version="1.1" id="Capa_1" xmlns="http://www.w3.org/2000/svg" xmlns:xlink="http://www.w3.org/1999/xlink" x="0px" y="0px"
	 viewBox="0 0 490.2 490.2" style="enable-background:new 0 0 490.2 490.2;" xml:space="preserve">
<g>
	<g>
		<path style="fill: white" d="M489.613,191.1V20.8c0-11.4-9.3-20.8-20.8-20.8h-214.9c-11.4,0-20.8,9.3-20.8,20.8v160.9h-211.8
			c-11.4,0-20.8,9.3-20.8,20.8v266.9c0,11.4,9.3,20.8,20.8,20.8h308.4c10.4,0,19.7-9.3,19.7-20.8V202.5c0-11.4-9.3-20.8-20.8-20.8
			h-54V41.6h174.5v149.5c0,11.4,9.3,20.8,20.8,20.8S490.613,202.5,489.613,191.1z M308.913,448.6h-266.8V222.3h266.9v226.3H308.913z
			"/>
		<path style="fill: white" d="M175.013,406c11.4,0,20.8-9.3,20.8-20.8v-49.8c0-11.4-9.3-20.8-20.8-20.8s-20.8,9.3-20.8,20.8v49.8
			C154.213,396.7,163.613,406,175.013,406z"/>
	</g>
</g>
<g>
</g>
<g>
</g>
<g>
</g>
<g>
</g>
<g>
</g>
<g>
</g>
<g>
</g>
<g>
</g>
<g>
</g>
<g>
</g>
<g>
</g>
<g>
</g>
<g>
</g>
<g>
</g>
<g>
</g>
</svg>
